<svg width="33" height="30" viewBox="0 0 33 30" fill="none" xmlns="http://www.w3.org/2000/svg">
<path d="M11.6875 29.9998C13.586 29.9998 15.125 28.4735 15.125 26.5907C15.125 24.7079 13.586 23.1816 11.6875 23.1816C9.78902 23.1816 8.25 24.7079 8.25 26.5907C8.25 28.4735 9.78902 29.9998 11.6875 29.9998Z" fill="white"/>
<path d="M25.4375 29.9998C27.336 29.9998 28.875 28.4735 28.875 26.5907C28.875 24.7079 27.336 23.1816 25.4375 23.1816C23.539 23.1816 22 24.7079 22 26.5907C22 28.4735 23.539 29.9998 25.4375 29.9998Z" fill="white"/>
<path d="M32.8319 4.32542C32.7013 4.1768 32.5116 4.09089 32.3122 4.09089H6.20117L5.4862 0.54818C5.42156 0.22909 5.13971 0 4.81248 0H0.687515C0.308019 0 0 0.305411 0 0.681773C0 1.05813 0.308019 1.36361 0.687515 1.36361H4.24871L7.59954 17.9822C8.04916 20.2035 10.0333 21.8181 12.3185 21.8181H29.5622C29.9417 21.8181 30.2497 21.5126 30.2497 21.1362C30.2497 20.7599 29.9417 20.4544 29.5622 20.4544H12.3185C10.685 20.4544 9.26879 19.3008 8.94705 17.7135L8.93467 17.6508L29.972 15.1213C30.8973 15.0095 31.6344 14.2936 31.7663 13.3799L32.9928 4.8695C33.0217 4.67314 32.9626 4.47544 32.8319 4.32542Z" fill="white"/>
</svg>
