<svg width="26" height="25" viewBox="0 0 26 25" fill="none" xmlns="http://www.w3.org/2000/svg">
<path d="M13.5 0.913086C8.81445 0.913086 5 4.5167 5 8.94325C5 14.4396 12.606 22.5088 12.9315 22.8466C13.2341 23.1671 13.7659 23.1671 14.0685 22.8466C14.394 22.5044 22 14.4396 22 8.94325C22.0046 4.5167 18.1901 0.913086 13.5 0.913086ZM13.5 21.257C10.9417 18.3854 6.53128 12.7158 6.53128 8.94325C6.53128 5.31365 9.65804 2.35973 13.5 2.35973C17.342 2.35973 20.4687 5.31365 20.4687 8.94325C20.4733 12.7158 16.0628 18.3854 13.5 21.257Z" fill="#FF731D" stroke="white" stroke-width="0.5"/>
<path d="M13.5 5.13672C11.1586 5.13672 9.25 7.03349 9.25 9.36032C9.25 11.6872 11.1586 13.5839 13.5 13.5839C15.8414 13.5839 17.75 11.6872 17.75 9.36032C17.75 7.03349 15.8459 5.13672 13.5 5.13672ZM13.5 12.0719C11.9968 12.0719 10.7714 10.8542 10.7714 9.36032C10.7714 7.86644 11.9968 6.64871 13.5 6.64871C15.0032 6.64871 16.2286 7.86644 16.2286 9.36032C16.2286 10.8542 15.0078 12.0719 13.5 12.0719Z" fill="#FF731D" stroke="white" stroke-width="0.5"/>
</svg>
