<svg width="17" height="17" viewBox="0 0 17 17" fill="none" xmlns="http://www.w3.org/2000/svg">
<path d="M15.2115 4.47135C14.8573 4.63958 14.7112 5.06458 14.8839 5.41875C15.3487 6.37943 15.5833 7.41536 15.5833 8.5C15.5833 12.4047 12.4047 15.5833 8.5 15.5833C4.59531 15.5833 1.41667 12.4047 1.41667 8.5C1.41667 4.59531 4.59531 1.41667 8.5 1.41667C10.1203 1.41667 11.6388 1.94349 12.8961 2.94401C13.2016 3.1875 13.6487 3.1388 13.8922 2.82891C14.1357 2.52344 14.087 2.0763 13.7771 1.83281C12.2896 0.650781 10.4125 0 8.5 0C3.81172 0 0 3.81172 0 8.5C0 13.1883 3.81172 17 8.5 17C13.1883 17 17 13.1883 17 8.5C17 7.20286 16.7167 5.95885 16.1589 4.80339C15.9862 4.44922 15.5612 4.30312 15.2115 4.47135Z" fill="#FF731D"/>
<path d="M8.49996 2.83331C8.11038 2.83331 7.79163 3.15206 7.79163 3.54165V8.49998C7.79163 8.88956 8.11038 9.20831 8.49996 9.20831H12.0416C12.4312 9.20831 12.75 8.88956 12.75 8.49998C12.75 8.1104 12.4312 7.79165 12.0416 7.79165H9.20829V3.54165C9.20829 3.15206 8.88954 2.83331 8.49996 2.83331Z" fill="#FF731D"/>
</svg>
