<svg xmlns="http://www.w3.org/2000/svg" viewBox="0 0 21.09 13.34"><defs><style>.cls-1{fill:#ff731d;}</style></defs><title>delivery</title><g id="Слой_2" data-name="Слой 2"><g id="ПК"><g id="_1_блок" data-name="1 блок"><path class="cls-1" d="M20.75,6.16a1.51,1.51,0,0,0-.86-.5l-.17-2.18a.34.34,0,0,0,.33-.27l.06-.36a1.23,1.23,0,0,0-.26-1,1.19,1.19,0,0,0-.94-.42H16.49l.12-.67a.64.64,0,0,0-.14-.52A.61.61,0,0,0,16,0H4.06a.77.77,0,0,0-.74.63l-1.06,6A.34.34,0,0,0,2.53,7h.06a.31.31,0,0,0,.32-.27L4,.74A.12.12,0,0,1,4.06.66H16l-1,6a.34.34,0,0,0,.27.39.33.33,0,0,0,.38-.27l.08-.43h3.95a.84.84,0,0,1,.66.28.86.86,0,0,1,.19.46h-1.1a.34.34,0,0,0-.33.28l-.12.7a.93.93,0,0,0,.19.77.9.9,0,0,0,.71.32h.32l-.26,1.46H19a1.82,1.82,0,0,0-.38-.79,1.77,1.77,0,0,0-1.4-.62A2.53,2.53,0,0,0,15,10.57h-.14l.43-2.43A.35.35,0,0,0,15,7.75a.34.34,0,0,0-.39.27l-.45,2.55H8.09A1.72,1.72,0,0,0,6.32,9.16a2.54,2.54,0,0,0-2.19,1.41H2.24l.13-.75H3.85a.33.33,0,0,0,0-.66H.33a.33.33,0,0,0,0,.66H1.7l-.12.67a.64.64,0,0,0,.13.52.64.64,0,0,0,.49.22H3.92a1.81,1.81,0,0,0,.38,1.49,1.79,1.79,0,0,0,1.4.62,2.52,2.52,0,0,0,2.39-2s0-.06,0-.08h6.68a1.85,1.85,0,0,0,.38,1.49,1.8,1.8,0,0,0,1.4.62,2.54,2.54,0,0,0,2.4-2,.25.25,0,0,0,0-.08h1.14a.33.33,0,0,0,.32-.28l.62-3.52A1.49,1.49,0,0,0,20.75,6.16ZM16.12,3.48h2.94l.16,2.16H15.74Zm2.79-1.41a.57.57,0,0,1,.44.19.59.59,0,0,1,.11.48l0,.08h-3.2l.13-.75ZM7.44,11.19A1.84,1.84,0,0,1,5.7,12.68a1.15,1.15,0,0,1-.9-.39,1.23,1.23,0,0,1-.23-1A1.86,1.86,0,0,1,6.32,9.82a1.11,1.11,0,0,1,1.12,1.37Zm10.88,0a1.85,1.85,0,0,1-1.75,1.49,1.14,1.14,0,0,1-.89-.39,1.16,1.16,0,0,1-.23-1,1.85,1.85,0,0,1,1.74-1.49,1.15,1.15,0,0,1,.9.39A1.17,1.17,0,0,1,18.32,11.19Zm1.46-2.74a.28.28,0,0,1-.2-.08.26.26,0,0,1,0-.23l.08-.43h.73l-.13.74Z"/><path class="cls-1" d="M6.07,10.57a.77.77,0,0,0-.74.62.67.67,0,0,0,.13.52.64.64,0,0,0,.49.22.78.78,0,0,0,.74-.62.64.64,0,0,0-.14-.52A.61.61,0,0,0,6.07,10.57Z"/><path class="cls-1" d="M17,10.57a.76.76,0,0,0-.74.62.6.6,0,0,0,.13.52.62.62,0,0,0,.48.22.76.76,0,0,0,.74-.62h0a.6.6,0,0,0-.13-.52A.62.62,0,0,0,17,10.57Z"/><path class="cls-1" d="M13.32,9.16H9.14a.33.33,0,0,0,0,.66h4.18a.33.33,0,0,0,0-.66Z"/><path class="cls-1" d="M1.28,8.41H7.37a.33.33,0,1,0,0-.66H1.28a.33.33,0,0,0,0,.66Z"/><path class="cls-1" d="M3.87,6.67A.33.33,0,0,0,4.2,7h8.17l-.68.45a.34.34,0,0,0-.1.46.33.33,0,0,0,.28.15A.3.3,0,0,0,12.05,8l1.6-1a.34.34,0,0,0,.14-.26.32.32,0,0,0-.11-.27L12.46,5.36a.33.33,0,0,0-.47,0,.32.32,0,0,0,0,.46l.55.48H4.2A.33.33,0,0,0,3.87,6.67Z"/></g></g></g></svg>