<svg width="36" height="33" viewBox="0 0 36 33" fill="none" xmlns="http://www.w3.org/2000/svg"><g clip-path="url(#clip0)"><path d="M12.8108 25.397C10.7027 25.397 9.08109 27.0146 9.08109 29.1176C9.08109 31.2205 10.7027 32.8382 12.8108 32.8382C14.9189 32.8382 16.5405 31.2205 16.5405 29.1176C16.5405 27.1764 14.9189 25.397 12.8108 25.397ZM12.8108 31.3823C11.6757 31.3823 10.5405 30.4117 10.5405 29.1176C10.5405 27.9852 11.5135 26.8529 12.8108 26.8529C14.1081 26.8529 15.0811 27.8234 15.0811 29.1176C15.0811 30.4117 13.9459 31.3823 12.8108 31.3823Z" fill="#666666"/><path d="M35.8378 4.85294C35.6757 4.69118 35.5135 4.52941 35.1892 4.52941H28.3784C28.5405 5.01471 28.7027 5.33824 28.8649 5.82353H34.2162L31.6216 16.5L9.72973 19.25L7.13513 5.82353H13.4595C13.4595 5.33824 13.6216 4.85294 13.9459 4.52941H6.81081L6 0.647059C6 0.323529 5.51351 0 5.18919 0H0.810811C0.324324 0 0 0.323529 0 0.808824C0 1.29412 0.324324 1.61765 0.810811 1.61765H4.7027L8.27027 19.8971C8.75676 22.3235 11.027 24.1029 13.2973 24.1029H30.4865C30.973 24.1029 31.2973 23.7794 31.2973 23.2941C31.2973 22.8088 30.973 22.4853 30.4865 22.4853H13.4595C12.3243 22.4853 11.027 21.8382 10.3784 20.8676L32.4324 17.7941C32.7568 17.7941 33.0811 17.4706 33.0811 17.1471L36.1622 5.17647C36 5.17647 36 5.01471 35.8378 4.85294Z" fill="#666666"/><path d="M27.7297 25.397C25.6216 25.397 24 27.0146 24 29.1176C24 31.2205 25.6216 32.8382 27.7297 32.8382C29.8379 32.8382 31.4595 31.2205 31.4595 29.1176C31.4595 27.1764 29.8379 25.397 27.7297 25.397ZM27.7297 31.3823C26.5946 31.3823 25.4595 30.4117 25.4595 29.1176C25.4595 27.9852 26.4324 26.8529 27.7297 26.8529C28.8649 26.8529 30 27.8234 30 29.1176C30 30.4117 29.027 31.3823 27.7297 31.3823Z" fill="#666666"/><path d="M28.7027 5.82363C28.5406 5.33834 28.3784 4.85304 28.2162 4.52951C26.9189 1.94128 24.3243 0.161865 21.2433 0.161865C18.1622 0.161865 15.4054 1.94128 14.1081 4.52951C13.946 4.85304 13.7838 5.33834 13.6216 5.82363C13.4595 6.47069 13.2973 7.27951 13.2973 7.92657C13.2973 12.1325 16.8649 15.6913 21.0811 15.6913C25.2973 15.6913 28.8649 12.1325 28.8649 7.92657C28.8649 7.27951 28.8649 6.47069 28.7027 5.82363ZM21.0811 14.3972C17.5135 14.3972 14.5946 11.4854 14.5946 7.92657C14.5946 7.27951 14.7568 6.47069 14.9189 5.82363C15.2433 5.33834 15.4054 4.85304 15.5676 4.52951C16.7027 2.7501 18.8108 1.45598 21.0811 1.45598C23.3514 1.45598 25.4595 2.58834 26.5946 4.52951C26.9189 5.01481 27.0811 5.33834 27.2433 5.82363C27.5676 6.47069 27.5676 7.27951 27.5676 7.92657C27.5676 11.4854 24.6487 14.3972 21.0811 14.3972Z" fill="#51AF63"/><path d="M21.2432 12.6176C20.9189 12.6176 20.7567 12.2941 20.7567 12.1323V4.36762C20.7567 4.04409 21.0811 3.88232 21.2432 3.88232C21.4054 3.88232 21.7297 4.20585 21.7297 4.36762V11.9706C21.8919 12.2941 21.5676 12.6176 21.2432 12.6176Z" fill="#51AF63"/><path d="M25.1351 8.73524H17.5135C17.1892 8.73524 17.027 8.41171 17.027 8.24994C17.027 7.92641 17.3513 7.76465 17.5135 7.76465H25.1351C25.4594 7.76465 25.6216 8.08818 25.6216 8.24994C25.6216 8.57347 25.4594 8.73524 25.1351 8.73524Z" fill="#51AF63"/></g><defs><clipPath id="clip0"><rect width="36" height="33" fill="white"/></clipPath></defs></svg>