<svg width="60" height="60" viewBox="0 0 60 60"  xmlns="http://www.w3.org/2000/svg" id="svg-po">
<g clip-path="url(#clip0)">
<path d="M49.0071 13.3484C38.084 10.2798 30.8969 14.3129 27.8292 19.9132C26.0434 23.1572 25.5504 28.5711 29.7575 33.4262C32.102 36.1222 35.4217 37.8538 37.9854 40.3854C38.7742 41.1636 39.6178 41.6239 39.3658 42.3691C39.2344 42.5664 38.8947 42.6979 38.6647 42.6869C33.5373 42.4129 26.2296 37.2401 19.3055 40.78C16.8513 42.0403 14.9669 44.835 12.4251 48.3201C11.6034 49.4489 11.702 49.2078 10.7817 48.1886C6.5637 43.5089 4 37.2949 4 30.5C4 15.8691 15.8653 4 30.4915 4C36.342 4 41.7542 5.89599 46.1366 9.11807C46.9255 9.69892 47.6486 10.3455 48.3497 11.025C48.8756 11.5511 49.6754 12.1319 50.0479 12.8333C50.7162 14.1046 49.7631 13.5567 49.0071 13.3484Z" />
<path fill-rule="evenodd" clip-rule="evenodd" d="M54.5509 41.591C54.507 41.6896 54.4632 41.7773 54.4194 41.8759C50.793 50.8189 41.3489 57 30.4915 57C25.0464 57 19.9848 55.3561 15.7777 52.5395C14.8355 51.9039 14.9888 51.7395 15.7339 50.523C16.2488 49.6901 17.1691 48.5283 18.8125 47.0488C24.8164 41.2951 33.9646 46.2597 36.4626 46.5228C42.083 47.1255 47.9992 46.4241 41.8858 40.9444C40.5163 39.3881 42.3788 38.1388 44.2851 37.6785C46.7831 37.0647 50.9573 37.4264 53.3676 38.5662C55.2301 39.4539 55.3178 39.9252 54.5509 41.591Z" />
<path d="M52.7321 19.6611C46.6077 20.4063 46.9802 24.5819 51.8008 31.1028C52.1405 31.4973 52.2062 31.8261 51.998 32.0782C51.9323 32.1549 51.8118 32.2316 51.6255 32.2974C50.7162 32.6152 49.7083 32.2206 48.7989 32.0343C47.276 31.7275 45.9504 31.4864 44.7671 31.3329C43.4634 31.1685 42.3349 31.1247 41.2831 31.2781C39.2234 31.574 37.5033 32.7905 36.5282 34.8071C36.1776 35.355 35.8161 35.0811 35.4655 34.6756C31.0941 30.0507 30.7873 25.4258 33.8331 20.8009C38.4893 14.5211 46.3009 14.9814 52.0638 18.6748C52.9841 19.1898 53.4004 19.5625 52.7321 19.6611Z" />
</g>
<defs>
<clipPath id="clip0">
<rect width="51" height="53" transform="translate(4 4)"/>
</clipPath>
</defs>
</svg>
