<svg width="60" height="60" viewBox="0 0 60 60" xmlns="http://www.w3.org/2000/svg" id="svg-services">
<path d="M57.2233 27.6836C57.1389 26.932 56.2621 26.3665 55.504 26.3665C53.0539 26.3665 50.8794 24.9284 49.9675 22.7027C49.0366 20.4234 49.6372 17.7659 51.4627 16.0912C52.0376 15.5655 52.1077 14.6853 51.6257 14.0743C50.3713 12.4817 48.9461 11.0429 47.3896 9.79615C46.7807 9.30769 45.8859 9.37569 45.3574 9.96058C43.7637 11.7257 40.9007 12.3816 38.6883 11.4585C36.3868 10.4902 34.9342 8.15733 35.0769 5.65333C35.1238 4.8663 34.5484 4.18242 33.7642 4.09107C31.7666 3.85979 29.7515 3.85308 27.7482 4.07534C26.9738 4.16091 26.3989 4.8286 26.4246 5.60568C26.5113 8.08518 25.0422 10.3769 22.763 11.3105C20.5772 12.2035 17.7341 11.5524 16.1436 9.80285C15.6179 9.22652 14.7388 9.15575 14.1257 9.63379C12.5234 10.8912 11.0661 12.3309 9.80009 13.9105C9.30678 14.5246 9.37963 15.4145 9.95944 15.942C11.821 17.6278 12.4212 20.3083 11.4547 22.6141C10.5319 24.8123 8.24938 26.2284 5.63663 26.2284C4.78877 26.2011 4.18537 26.7708 4.0917 27.5418C3.85672 29.55 3.85418 31.5972 4.08037 33.6218C4.16478 34.3767 5.06746 34.9373 5.83391 34.9373C8.16288 34.8781 10.3975 36.3189 11.3362 38.6009C12.2704 40.8801 11.669 43.5366 9.84057 45.2135C9.26862 45.7392 9.19553 46.6174 9.67844 47.2277C10.9202 48.8103 12.3467 50.25 13.9078 51.5074C14.5207 52.001 15.412 51.9318 15.9433 51.3462C17.5433 49.577 20.4058 48.9222 22.6092 49.8471C24.9173 50.8129 26.3693 53.1455 26.2275 55.6503C26.181 56.4373 26.7578 57.1232 27.5393 57.2125C28.5616 57.3321 29.5891 57.3913 30.6199 57.3913C31.5982 57.3913 32.5768 57.3379 33.5553 57.2289C34.3306 57.1434 34.9046 56.475 34.8784 55.6977C34.7889 53.2193 36.2613 50.9274 38.5377 49.9956C40.7381 49.0969 43.5685 49.7546 45.1599 51.5017C45.6884 52.0768 46.5621 52.1467 47.1778 51.6705C48.7773 50.4163 50.2318 48.9773 51.5034 47.3935C51.9972 46.7806 51.9271 45.8895 51.344 45.3611C49.4829 43.6765 48.8795 40.9949 49.846 38.6914C50.7545 36.5227 52.9521 35.0666 55.3158 35.0666L55.6465 35.0754C56.4139 35.1376 57.119 34.5467 57.2118 33.7638C57.4479 31.7538 57.4505 29.7089 57.2233 27.6836ZM30.6521 46.0676C22.1381 46.0676 15.2365 39.1662 15.2365 30.6525C15.2365 22.1388 22.1383 15.2373 30.6521 15.2373C39.1659 15.2373 46.0677 22.1388 46.0677 30.6525C46.0677 33.5423 45.2709 36.2452 43.8872 38.5565L37.1371 31.8063C37.6258 30.6541 37.8839 29.405 37.8837 28.1159C37.8837 25.5915 36.9005 23.2184 35.1153 21.4336C33.3305 19.6489 30.9574 18.666 28.4334 18.666C27.5911 18.666 26.7527 18.7779 25.9417 18.9988C25.5864 19.0957 25.2959 19.3885 25.2013 19.7444C25.1047 20.1084 25.2136 20.4815 25.4981 20.7662C25.4981 20.7662 28.8305 24.1243 29.9455 25.239C30.0623 25.3558 30.0621 25.6345 30.0457 25.7349L30.0353 25.8082C29.9229 27.034 29.7062 28.5053 29.5274 29.0708C29.5033 29.0946 29.4807 29.1147 29.4561 29.1393C29.4305 29.1649 29.4069 29.1897 29.3821 29.2151C28.8093 29.399 27.3152 29.6182 26.07 29.7297L26.0702 29.723L26.0143 29.7371C26.0043 29.7383 25.9858 29.7396 25.9613 29.7396C25.8267 29.7396 25.6287 29.7019 25.4488 29.5222C24.2882 28.3617 21.0864 25.1828 21.0864 25.1828C20.7992 24.8965 20.5045 24.8364 20.3082 24.8364C19.8505 24.8364 19.4407 25.1671 19.3116 25.6415C18.4302 28.9031 19.3646 32.4116 21.7507 34.7978C23.5359 36.5828 25.9093 37.5657 28.4337 37.5657C29.7228 37.5657 30.9719 37.3079 32.1239 36.8192L38.9473 43.6425C36.5517 45.1754 33.707 46.0676 30.6521 46.0676Z" />
</svg>
