<svg width="60" height="60" viewBox="0 0 60 60" xmlns="http://www.w3.org/2000/svg" id="svg-pos">
<g clip-path="url(#clip0)">
<path d="M33.9944 18.1765C33.9969 18.2552 33.9832 18.3336 33.954 18.407C33.9249 18.4805 33.8808 18.5475 33.8246 18.604C33.7684 18.6605 33.701 18.7055 33.6266 18.7361C33.5522 18.7668 33.4723 18.7826 33.3915 18.7826H11.1207C10.9624 18.7732 10.8138 18.7052 10.7052 18.5926C10.5966 18.4799 10.5363 18.3311 10.5366 18.1765C10.5366 18.0977 10.5528 18.0198 10.5843 17.9473C10.6157 17.8747 10.6618 17.8091 10.7198 17.7543C10.7778 17.6995 10.8465 17.6566 10.9219 17.6281C10.9972 17.5997 11.0776 17.5863 11.1584 17.5888H33.3915C33.5514 17.5888 33.7047 17.6507 33.8178 17.7609C33.9309 17.8711 33.9944 18.0206 33.9944 18.1765Z" />
<path d="M40.9093 7.92843L39.3077 7.8366C38.4699 7.19164 37.4522 6.80764 36.3873 6.73465C28.7944 6.29254 21.1747 6.66206 13.6643 7.8366L12.7411 7.98352L10.8569 8.27738L8.18141 8.75489L7.27702 8.92018C5.99957 9.18308 4.86284 9.88762 4.07671 10.9037C3.29057 11.9198 2.90813 13.1788 2.99998 14.4483C3.22173 17.4139 3.66251 20.3601 4.31889 23.2639C4.59469 24.4202 5.25761 25.4541 6.20305 26.2024C6.80225 26.6622 7.48674 27.0052 8.2191 27.2125C15.9441 29.4164 30.4899 29.7654 30.4899 29.7654H32.1479H33.9002C35.1652 29.6766 36.3793 29.244 37.4047 28.5165H38.799C39.8614 28.512 40.8935 28.1711 41.7397 27.545C42.586 26.9189 43.2004 26.0416 43.4906 25.0454C44.5898 21.0717 45.2592 16.9968 45.4878 12.8872C45.5348 11.6429 45.0832 10.4296 44.2287 9.50405C43.3742 8.57853 42.1837 8.01345 40.9093 7.92843ZM33.3726 20.4723H11.1207C10.795 20.5008 10.4667 20.4628 10.1569 20.3608C9.84705 20.2589 9.56238 20.0951 9.32103 19.88C9.07967 19.6649 8.88692 19.4032 8.75504 19.1115C8.62317 18.8198 8.55506 18.5045 8.55506 18.1857C8.55506 17.867 8.62317 17.5517 8.75504 17.26C8.88692 16.9683 9.07967 16.7065 9.32103 16.4914C9.56238 16.2763 9.84705 16.1126 10.1569 16.0106C10.4667 15.9087 10.795 15.8707 11.1207 15.8992H33.3915C33.7172 15.8707 34.0454 15.9087 34.3553 16.0106C34.6651 16.1126 34.9498 16.2763 35.1911 16.4914C35.4325 16.7065 35.6252 16.9683 35.7571 17.26C35.889 17.5517 35.9571 17.867 35.9571 18.1857C35.9571 18.5045 35.889 18.8198 35.7571 19.1115C35.6252 19.4032 35.4325 19.6649 35.1911 19.88C34.9498 20.0951 34.6651 20.2589 34.3553 20.3608C34.0454 20.4628 33.7172 20.5008 33.3915 20.4723H33.3726Z" />
<path d="M24.5547 30.3531L24.3098 30.6837C23.8388 31.3448 23.4619 31.9509 23.1605 32.5202C22.859 33.0896 22.5764 33.512 22.3503 33.9528L21.9734 34.7058C21.9734 34.7058 21.7285 35.2016 21.5212 35.6608C21.314 36.1199 20.6357 37.7912 20.2777 38.8748C19.5051 41.3271 18.9194 43.8317 18.5254 46.3681L19.3168 47.1394C19.7618 47.5694 20.1144 48.0817 20.3538 48.6462C20.5932 49.2107 20.7147 49.8161 20.7111 50.4269C20.7111 51.6593 20.2088 52.8411 19.3149 53.7125C18.4209 54.5839 17.2084 55.0735 15.9441 55.0735C15.687 55.0917 15.4288 55.0917 15.1716 55.0735C12.2611 54.6093 9.48959 53.5313 7.05091 51.9145C6.59324 51.6078 6.21987 51.1961 5.96362 50.7158C5.70736 50.2354 5.57607 49.7011 5.58126 49.1597C5.67122 42.0699 6.66488 35.0184 8.53939 28.1675L10.8381 28.7369C14.5593 29.5244 18.3401 30.0158 22.143 30.2061L24.5547 30.3531Z" />
<path d="M29.9623 30.5551L28.0781 35.5873C27.764 36.4018 27.2025 37.1036 26.4686 37.5991C25.7348 38.0946 24.8634 38.3602 23.9707 38.3605H23.4808L21.4082 38.1402C21.5778 37.6259 21.7662 37.0749 22.0111 36.5056C22.3554 35.615 22.7647 34.7496 23.2358 33.916C23.921 32.6817 24.7154 31.5079 25.6099 30.4081L28.1535 30.5L29.9623 30.5551Z" />
<path d="M54.3433 15.5502L51.7432 15.7155C51.115 15.7617 50.5277 16.0368 50.0982 16.486C49.6687 16.9353 49.4286 17.5257 49.4257 18.1398V18.3785C49.429 18.9907 49.6697 19.579 50.0996 20.0252C50.5295 20.4715 51.1166 20.7427 51.7432 20.7845L54.3433 20.9498H54.5129C55.1441 20.9488 55.7509 20.7122 56.2086 20.2886C56.4694 20.0568 56.6753 19.7725 56.8119 19.4553C56.9486 19.1381 57.0128 18.7958 57 18.452V17.9561C57.0103 17.6127 56.945 17.2711 56.8085 16.9543C56.672 16.6375 56.4674 16.3528 56.2086 16.1195C55.9599 15.8875 55.663 15.7101 55.338 15.5992C55.013 15.4883 54.6674 15.4466 54.3245 15.4767L54.3433 15.5502Z" />
<path d="M48.2198 28.6817L50.3866 30.0959C50.7991 30.3641 51.285 30.5049 51.7808 30.5C51.9625 30.518 52.1456 30.518 52.3273 30.5C52.6592 30.4253 52.9722 30.2859 53.2475 30.0902C53.5227 29.8945 53.7545 29.6466 53.9288 29.3613L54.2114 28.847C54.3766 28.5725 54.482 28.2677 54.5209 27.9517C54.5598 27.6357 54.5314 27.3153 54.4375 27.0105C54.3416 26.6917 54.1779 26.3961 53.9572 26.143C53.7365 25.8899 53.4636 25.6848 53.1563 25.5412L50.7822 24.3658C50.2174 24.1011 49.5713 24.0524 48.9714 24.2292C48.3715 24.4059 47.8613 24.7954 47.5415 25.3208L47.4284 25.5412C47.1151 26.0708 47.0187 26.6963 47.1585 27.2923C47.2982 27.8883 47.6639 28.4108 48.1821 28.7552L48.2198 28.6817Z" />
<path d="M47.4284 11.0506L47.5415 11.2526C47.7592 11.6203 48.0723 11.9258 48.4492 12.1385C48.8262 12.3512 49.2538 12.4637 49.6894 12.4647C50.0689 12.4602 50.4424 12.3723 50.7822 12.2076L53.1186 11.1057C53.4245 10.9601 53.6963 10.7545 53.9168 10.5016C54.1373 10.2488 54.3017 9.9542 54.3998 9.63641C54.4904 9.33115 54.5171 9.01124 54.4782 8.69572C54.4394 8.3802 54.3358 8.07553 54.1737 7.79983L53.8722 7.21212C53.706 6.9164 53.4801 6.65655 53.2081 6.44823C52.9361 6.23991 52.6236 6.08743 52.2895 5.99998C51.6388 5.8702 50.9619 5.99557 50.4054 6.34893L48.2198 7.83656C47.6979 8.17805 47.3294 8.70071 47.1894 9.29796C47.0493 9.8952 47.1483 10.522 47.4661 11.0506H47.4284Z" />
</g>
<defs>
<clipPath id="clip0">
<rect width="54" height="49"  transform="translate(3 6)"/>
</clipPath>
</defs>
</svg>
