<svg width="26" height="25" viewBox="0 0 26 25" fill="none" xmlns="http://www.w3.org/2000/svg">
<g clip-path="url(#clip0)">
<path d="M19.5809 3.27568H17.3933V2.26178C17.3933 1.93711 17.0461 1.78331 16.732 1.78331H15.0348C14.6325 0.598534 13.6241 0.000448539 12.4724 0.000448539C11.3318 -0.0451199 10.2958 0.678279 9.91009 1.78331H8.24043C7.92633 1.78331 7.60673 1.93141 7.60673 2.26178V3.27568H5.41908C4.12413 3.29277 3.06061 4.34654 3 5.68511V22.7391C3 24.0492 4.15168 25.0004 5.41908 25.0004H19.5809C20.8483 25.0004 22 24.0492 22 22.7391V5.68511C21.9394 4.34654 20.8814 3.29277 19.5809 3.27568ZM8.75841 2.97948H10.3399C10.6154 2.94531 10.8358 2.72886 10.8854 2.44406C11.0563 1.67509 11.7065 1.12827 12.4669 1.10548C13.2219 1.12827 13.8611 1.68078 14.0209 2.44406C14.0705 2.73455 14.3074 2.9567 14.594 2.97948H16.2361V5.36043H8.75841V2.97948ZM20.8483 22.7391C20.8483 23.3941 20.2146 23.8099 19.5809 23.8099H5.41908C4.78538 23.8099 4.15168 23.3941 4.15168 22.7391V5.68511C4.2123 5.00158 4.75783 4.47755 5.41908 4.46615H7.60673V5.9813C7.63979 6.31737 7.91531 6.5623 8.24043 6.54521H16.732C17.0626 6.5623 17.3492 6.31737 17.3933 5.9813V4.46615H19.5809C20.2422 4.47755 20.7877 5.00728 20.8483 5.68511V22.7391Z" fill="#FF731D"/>
<path d="M9.48025 13.2718L7.63977 15.0888L6.85729 14.2572C6.64238 14.0237 6.2842 14.0066 6.05276 14.2287C5.83235 14.468 5.83235 14.8496 6.05276 15.0945L7.232 16.342C7.3367 16.4616 7.47997 16.5242 7.63426 16.5185C7.78855 16.5185 7.93182 16.4502 8.03652 16.342L10.2848 14.1376C10.5052 13.9268 10.5217 13.568 10.3178 13.3401C10.3068 13.3287 10.2958 13.3173 10.2848 13.306C10.0699 13.0667 9.71169 13.0553 9.48025 13.2718Z" fill="#FF731D"/>
<path d="M18.545 14.5819H11.9269C11.6073 14.5819 11.3538 14.8496 11.3538 15.1743C11.3538 15.499 11.6128 15.7667 11.9269 15.7667H18.5505C18.8701 15.7667 19.1236 15.499 19.1236 15.1743C19.1236 14.8496 18.8646 14.5819 18.545 14.5819Z" fill="#FF731D"/>
<path d="M9.48025 8.51561L7.63977 10.3326L6.85729 9.49533C6.64238 9.26179 6.2842 9.2447 6.05276 9.46685C5.83235 9.70608 5.83235 10.0877 6.05276 10.3326L7.232 11.5801C7.3367 11.6997 7.47997 11.7624 7.63426 11.7567C7.78855 11.7567 7.93182 11.6883 8.03652 11.5801L10.2848 9.37571C10.5052 9.16496 10.5217 8.80611 10.3178 8.57826C10.3068 8.56687 10.2958 8.55548 10.2848 8.54409C10.0699 8.30485 9.71169 8.29346 9.48025 8.51561Z" fill="#FF731D"/>
<path d="M18.545 9.82001H11.9269C11.6073 9.82001 11.3538 10.0877 11.3538 10.4124C11.3538 10.7428 11.6128 11.0048 11.9269 11.0048H18.5505C18.8701 11.0048 19.1236 10.7371 19.1236 10.4124C19.1236 10.0877 18.8646 9.82001 18.545 9.82001Z" fill="#FF731D"/>
<path d="M9.48025 18.0337L7.63977 19.8507L6.85729 19.0191C6.64238 18.7856 6.2842 18.7685 6.05276 18.9906C5.83235 19.2298 5.83235 19.6115 6.05276 19.8564L7.232 21.1038C7.3367 21.2235 7.47997 21.2861 7.63426 21.2804C7.78855 21.2804 7.93182 21.2121 8.03652 21.1038L10.2848 18.8995C10.5052 18.6887 10.5217 18.3299 10.3178 18.102C10.3068 18.0906 10.2958 18.0792 10.2848 18.0679C10.0699 17.8286 9.71169 17.8172 9.48025 18.0337Z" fill="#FF731D"/>
<path d="M18.545 19.3438H11.9269C11.6073 19.3438 11.3538 19.6115 11.3538 19.9362C11.3538 20.2666 11.6128 20.5286 11.9269 20.5286H18.5505C18.8701 20.5286 19.1236 20.2609 19.1236 19.9362C19.1236 19.6115 18.8646 19.3438 18.545 19.3438Z" fill="#FF731D"/>
</g>
<defs>
<clipPath id="clip0">
<rect width="19" height="25" fill="white" transform="translate(3)"/>
</clipPath>
</defs>
</svg>
